<?xml version="1.0" encoding="UTF-8"?>
<svg id="Layer_1" data-name="Layer 1" xmlns="http://www.w3.org/2000/svg" viewBox="0 0 595.28 595.28">
  <defs>
    <style>
      .cls-1 {
        fill: #d6b229;
      }
    </style>
  </defs>
  <polygon class="cls-1" points="402.6 364.55 304.95 524.05 30.95 112.37 564.51 112.37 402.6 364.55"/>
  <path d="M20.94,111.23c.61.77,1.12,1.6,1.57,2.48.03.04.06.07.09.11.78,1.08,1.7,2.02,2.73,2.89,1.61,1.35,3.01,2.93,4.22,4.63,2.04,2.87,3.87,5.89,5.93,8.74.94,1.3,1.82,2.58,2.41,4.07.07.19.18.37.29.54,1.15,1.81,2.38,3.57,3.43,5.43,1.06,1.87,2.2,3.68,3.31,5.52.48.79,1.13,1.47,1.5,2.31.76,1.73,1.61,3.35,2.84,4.84,1.36,1.63,2.56,3.41,3.89,5.08.61.76,1.13,1.58,1.59,2.44.48.9,1,1.78,1.52,2.66,1.14,1.93,2.55,3.7,3.5,5.75.32.68.7,1.52,1.3,1.86,1.35.77,2.06,2.05,2.68,3.27,1.55,3.01,3.66,5.64,5.42,8.49,1.05,1.7,2.45,3.14,3.56,4.78,1.36,2.01,2.79,4,3.79,6.24,1.08,2.45,2.94,4.42,4.12,6.81.48.96.86,1.96,1.37,2.91,1.02,1.89,2.27,3.64,3.17,5.6,1.67,3.63,4.28,6.73,6.01,10.33.29.6.62,1.17.98,1.73,1.41,2.23,3.25,4.15,4.67,6.4.81,1.27,1.94,2.35,2.67,3.71.82,1.53,2.25,2.63,2.94,4.23.26.6.63,1.07,1.1,1.43,1.84,1.4,3.49,2.96,4.71,4.95.58.95,1.44,1.77,1.87,2.78,1.02,2.35,2.66,4.34,3.72,6.67,1.02,2.25,2.6,4.15,4.17,6.02.71.85.96,1.9,1.65,2.74.9,1.09,1.73,2.25,2.55,3.4.35.5.48,1.25.93,1.56,1.03.7,1.52,1.78,2.22,2.71,1.79,2.41,3.38,4.97,5.17,7.38,1.06,1.42,2.06,2.88,3.22,4.22.9,1.05,1.84,2.06,2.71,3.13,2.02,2.5,4.06,4.99,6.36,7.24,1.1,1.07,2.08,2.24,3.03,3.46,1.28,1.65,2.63,3.27,4.09,4.76.84.86,1.55,1.75,2.01,2.85.46,1.09,1.23,1.96,2,2.86.96,1.12,2.31,1.88,2.97,3.28.45.96.88,1.91,1.58,2.76.41.5.91.96,1.26,1.52,1.78,2.85,3.84,5.52,5.77,8.27.97,1.39,1.66,2.96,2.68,4.28,1.04,1.34,2.05,2.7,2.78,4.2,1.11,2.26,2.72,4.2,3.82,6.47.68,1.41,1.63,2.7,2.49,4.02.72,1.11,1.63,2.12,2.22,3.3,1.18,2.38,2.58,4.62,4.05,6.81,2.04,3.05,3.94,6.19,5.65,9.44,1.88,3.58,4.05,6.97,6.19,10.39,2.92,4.69,6.14,9.17,9.02,13.89,1.59,2.61,3.31,5.15,5.11,7.64,1.4,1.95,2.71,3.96,4.15,5.88.77,1.02,1.53,2.05,2.22,3.12.88,1.36,1.65,2.8,2.55,4.16,1.15,1.74,2.4,3.42,3.57,5.14,1.91,2.83,4.02,5.55,5.63,8.58.65,1.22,1.43,2.37,2.37,3.39,1.71,1.85,3.01,3.98,4.37,6.08.86,1.32,1.6,2.75,2.7,3.9,1.46,1.52,2.55,3.3,3.79,4.98,1.19,1.61,1.98,3.48,3.29,4.99,2.26,2.61,3.87,5.64,5.7,8.53,1.2,1.9,2.37,3.82,3.52,5.76,1.68,2.81,3.6,5.46,5.04,8.42,1.7,3.49,3.51,6.93,5.68,10.17,1.79,2.67,3.36,5.49,5,8.27,1.1,1.85,1.87,3.87,2.99,5.71,2.11,3.45,4.16,6.93,6.23,10.39,1.18,1.97,2.23,4.04,3.59,5.89,1.26,1.71,2.25,3.52,3.14,5.42.7,1.48,1.44,2.96,2.48,4.22,1.74,2.1,3.23,4.35,4.45,6.78.72,1.43,1.67,2.69,2.69,3.91.33.39.52.66.59.92.04.05.05.06,0,.02,0,0,0,0,0,0,.19.21.37.42.55.64.51.61.92,1.2,1.23,1.9.58.48,1.01,1.12,1.19,1.91.04.05.08.1.12.15.37.58.59,1.23.69,1.9.34.47.63.98.9,1.55.11.23.21.51.31.8,1.04,1.3,2.07,2.61,3.07,3.94.22-.13.44-.27.65-.42.03-.02.05-.03.07-.05,0,0,.01-.01.02-.03.09-.09.2-.17.29-.26.21-.2.4-.41.59-.63.15-.18.32-.3.51-.41,1.48-2.87,3.08-5.65,4.96-8.19.08-.14.17-.27.27-.39.02-.03.05-.06.07-.09.26-.7.55-1.4.87-2.07,0-.02.02-.03.03-.04,0-.15.03-.3.09-.45.39-.99.7-2.06,1.24-2.94,1.12-1.82,2.49-3.48,3.79-5.19.31-.41.63-.79.75-1.31.34-1.48,1.09-2.74,2.17-3.81.02-.02.05-.04.07-.06.2-.45.4-.89.62-1.33.04-.11.09-.22.16-.31.69-1.35,1.47-2.66,2.32-3.93.23-.91.93-1.55,1.26-2.38.04-.09.1-.2.16-.3.68-2.19,2.15-3.89,3.69-5.77.42-.51.83-1.04,1.23-1.57.02-.06.04-.12.06-.18.04-.18.23-.35.38-.47.04-.03.07-.07.11-.1.74-1.03,1.46-2.09,2.15-3.16.25-.53.5-1.06.8-1.56.21-.34.18-.84.51-1.1.3-.23.55-.49.78-.76.39-.66.77-1.32,1.14-1.97,1.32-2.3,2.57-4.65,3.88-6.96.11-.38.27-.74.58-1.01.39-.67.79-1.33,1.19-1.99.17-.43.42-.82.73-1.18.15-.23.28-.46.43-.69.3-.46.62-.91.94-1.35.54-1.36,1.12-2.7,2.33-3.66.29-.23.37-.6.49-.93.38-.99.55-2.27,1.28-2.89,1.33-1.15,1.76-2.65,2.39-4.11.04-.09.08-.19.14-.27,1.07-1.49,1.6-3.32,2.97-4.61.17-.16.27-.44.3-.68.16-1.29.93-2.25,1.7-3.21.91-1.16,1.08-1.93,1.11-1.97.94-1.29,1.5-1.36,1.8-2.35.21-.69.06-1.01.44-1.6.26-.4.5-.5.9-1.01.35-.44.56-.86.69-1.15,3.16-6.05,6.7-11.87,10.55-17.5.12-.27.27-.54.44-.8,1.27-1.9,1.89-4.22,3.68-5.78.01-.13.03-.27.06-.41.08-.36.24-.66.46-.9.07-.41.38-.7.63-1.03,1.28-1.72,2.7-3.36,3.78-5.2,1.98-3.35,4.08-6.6,6.34-9.76.45-.62.84-1.28,1.24-1.94,2.58-4.24,5.39-8.32,8.22-12.39,1.34-1.93,2.67-3.88,3.93-5.86,1.26-1.98,2.51-3.97,3.92-5.86,2.17-2.91,4.36-5.81,6.4-8.81,2.47-3.64,5.17-7.09,7.72-10.67,1.87-2.62,3.74-5.25,5.63-7.85,1.81-2.48,3.49-5.05,5.28-7.53,3.35-4.64,6.52-9.4,9.82-14.09,2.32-3.3,4.44-6.75,6.66-10.12,5.12-7.77,10.06-15.66,14.98-23.55,2.48-3.98,5.05-7.92,7.34-12.03,1.07-1.92,2.3-3.75,3.3-5.7.77-1.51,1.62-2.93,2.59-4.32,1.69-2.43,3.24-4.95,4.63-7.57,1.62-3.07,3.03-6.25,5.11-9.08,1.39-1.89,2.8-3.77,3.91-5.86.74-1.4,1.43-2.82,2.31-4.15,1.53-2.31,3.27-4.45,4.73-6.8,1.83-2.95,3.57-5.96,5.66-8.74,2.46-3.28,4.42-6.89,6.73-10.26,2.29-3.33,4.35-6.8,6.49-10.21,2-3.2,4.02-6.39,6.03-9.59,1.95-3.12,3.9-6.24,5.85-9.36,2.54-4.08,4.93-8.25,7.37-12.39,2.68-4.54,5.58-8.93,8.58-13.27,1.16-1.68,2.23-3.43,3.25-5.21,2.33-4.08,4.56-8.23,7.08-12.2,2.98-4.7,5.86-9.47,9.22-13.93,1.75-2.33,3.43-4.72,5.14-7.07,2.53-3.48,5.02-6.99,6.88-10.85.35-.72.74-1.22,1.19-1.58.1-.16.21-.31.34-.44.56-1.28,1.33-2.42,2.22-3.47.42-.93,1.1-2.3,2.12-3.85,1.43-2.17,2.6-3.26,2.27-3.77-.27-.41-1.25-.03-3.23.24,0,0-.68.09-4.42.21-2.69.08-11.35-.18-23.05-1.3-.67.02-1.33.05-2,.08-3.52.14-7.03.42-10.55.63-2.25.13-4.5.28-6.74-.02-2.75-.37-5.52-.25-8.27-.17-3.62.1-7.24.57-10.85.98-4.77.55-9.55,1.03-14.35,1.31-4.6.27-9.19.51-13.79.53-3.17.02-6.34.04-9.5.15-3.21.12-6.42.41-9.64.52-2.81.09-5.63.07-8.42.36-6.46.66-12.93.95-19.41,1.13-3.62.1-7.25.16-10.87.19-2.04.02-4.08.12-6.12.17-4.29.11-8.59.25-12.86.61-4.79.41-9.58.56-14.38.63-4.03.06-8.07-.27-12.1-.27-6.08,0-12.17-.09-18.25.14-3.22.12-6.44.13-9.67.23-5.26.16-10.51.39-15.78.35-3.68-.03-7.36-.13-11.04.09-4.13.25-8.26.52-12.39.84-3.17.24-6.33-.07-9.5.1-3.62.19-7.26.06-10.88.16-3.17.09-6.33.34-9.5.46-5.31.2-10.63.49-15.94.47-4.25-.02-8.49.19-12.73.11-2.8-.05-5.61.04-8.41.02-2.91-.02-5.81.16-8.72.01-1.68-.09-3.39.17-5.06.01-4.13-.39-8.27-.16-12.4-.14-4.18.02-8.37.01-12.55,0-1.02,0-2.05.03-3.07,0-4.45-.1-8.89-.36-13.34-.6-3.26-.18-6.55-.12-9.8-.45-5.43-.55-10.88-.95-16.32-1.33-3.97-.27-7.94-.58-11.94-.36-4.18.22-8.38.09-12.57-.06-3.12-.11-6.24.1-9.36-.03-4.54-.18-9.07-.56-13.61-.82-3.11-.18-6.21-.41-9.32-.65-2.8-.22-5.6-.44-8.42-.37-1.88.04-3.77-.21-5.66-.34-2.34-.16-4.69-.29-7.04-.44-2.39-.15-4.79-.12-7.15-.56-1.23-.23-2.46.06-3.66-.17-2.2-.42-4.48-.31-6.64-.99-.28-.09-.61-.05-.91-.07-2.85-.18-5.7-.27-8.54-.6-.81-.09-1.57-.37-2.41-.41-3.06-.15-6.13-.34-9.18-.63-5.06-.49-10.12-1.06-15.18-1.59-1.89.18-4.71.35-8.14.15-4.04-.23-7.82-.92-8.14.01-.11.32.28.57,1.12,2.07.47.85.81,1.59,1.03,2.13,1.41,1.92,2.37,4.01,3.06,6.25ZM38.48,112.69c.24-.45.72-.3,1.11-.27,1.28.11,2.55.13,3.83.19,5.57.26,11.14.5,16.7.88,4.59.31,9.18.6,13.77.86,5,.28,10,.78,15,1.09,3.47.21,6.96.22,10.43.38,4.7.22,9.37.75,14.03,1.46,3.12.47,6.3.5,9.47.67,4.29.22,8.58.31,12.88.31,2.55,0,5.11.14,7.66.31,4.55.29,9.1.17,13.65.23,4.86.06,9.71,0,14.57.02,3.16.02,6.33.22,9.49.26,5.57.07,11.15.06,16.72.12,5.63.06,11.25,0,16.88,0,8.69,0,17.38.08,26.07.02,4.96-.03,9.92-.24,14.87.18,5.71.49,11.43.52,17.16.63,5.57.11,11.14,0,16.71-.18,1.89-.06,3.78.13,5.67.07,2.81-.08,5.61,0,8.42-.06,4.4-.09,8.79.17,13.18.1,3.17-.05,6.33-.26,9.5-.48,4.49-.3,8.99-.44,13.49-.53,4.86-.09,9.71-.28,14.57-.39,4.65-.1,9.3-.03,13.94-.26,3.88-.19,7.76-.22,11.65-.53,3.87-.31,7.77-.15,11.66-.16,3.07,0,6.13-.1,9.19-.18,4.19-.11,8.38-.11,12.57-.1,5.01.01,10.01-.34,15.01-.47,5.73-.15,11.45-.27,17.17-.04,4.75.19,9.51,0,14.26-.26,4.03-.23,8.07-.42,12.11-.65,3.06-.17,6.12-.42,9.18-.54,2.19-.09,4.37.04,6.55.28,2.33.26,4.68.38,7.03.48,2.71.12,5.42.11,8.12.22,3.17.12,6.33-.14,9.5-.24,6.03-.18,12.05-.73,18.1-.56,5.21.15,10.43.15,15.62-.38,3-.31,5.99-.71,8.99-1.07.35-.04.7-.18,1.3.13-1.04,1.79-1.99,3.53-3.03,5.21-2.63,4.27-5.15,8.62-8.02,12.72-2.23,3.19-3.98,6.65-6.08,9.9-.17.26-.33.53-.56.73-1.4,1.2-2.01,2.94-3.07,4.38-.99,1.35-1.67,2.89-2.7,4.23-1.05,1.37-2.12,2.84-2.74,4.4-.57,1.44-1.36,2.53-2.42,3.54-.18.17-.31.41-.41.64-1.35,3-3.46,5.54-5.1,8.36-.84,1.46-1.8,2.85-2.73,4.26-.54.81-1.15,1.6-1.92,2.17-.83.88-1.67,1.76-2.3,2.76-.31,1.02-.85,1.89-1.43,2.77-2.54,3.84-5.1,7.67-7.42,11.64-1.05,1.81-1.84,3.76-3.06,5.49-2.08,2.95-4.1,5.95-6.17,8.91-1.96,2.8-3.98,5.56-5.9,8.39-1.03,1.52-1.91,3.14-2.83,4.73-.55.95-1.29,1.66-2.19,2.3-1.2.84-2.26,1.84-2.95,3.22-1.41,2.83-2.91,5.61-4.41,8.4-.91,1.69-2.23,3.16-3.23,4.82-2.34,3.89-4.81,7.7-7.41,11.44-1.37,1.97-2.42,4.12-3.01,6.49-.17.68-.53,1.25-.93,1.8-.58,1.39-1.12,2.8-1.45,4.28-.21.97-.86,1.45-1.59,1.58-1.26,1.54-2.34,3.21-3.34,4.93-1.77,3.05-4.09,5.76-5.73,8.87-1.2,2.29-2.66,4.49-3.34,7.04-.16.61-.54,1.09-.89,1.6-2.19,3.14-4.36,6.29-6.55,9.43-.29.42-.63.81-.99,1.16-.52.5-.97,1.05-1.36,1.66-.82,1.29-1.55,2.66-2.49,3.86-2.04,2.58-3.14,5.74-5.29,8.24-.6.7-1.21,1.38-1.75,2.12-3.32,4.54-6.27,9.33-9.39,14-1.48,2.21-2.94,4.43-4.59,6.52-.25.32-.48.66-.84.88-1.69,1.05-2.61,2.68-3.27,4.48-.07.19-.11.41-.23.56-1.93,2.52-3.3,5.38-5.02,8.03-1.48,2.27-2.92,4.55-4.14,6.98-.41.81-.97,1.58-1.53,2.27-1.67,2.04-2.74,4.43-4.12,6.64-.92,1.48-2.1,2.77-3.11,4.18-1.8,2.53-3.81,4.92-5.5,7.53-.22.34-.42.72-.71,1-1.54,1.53-2.66,3.35-3.79,5.17-1.85,3-3.99,5.8-6.1,8.61-.3.41-.6.83-.83,1.28-1.27,2.46-2.83,4.72-4.46,6.95-1.13,1.56-2.03,3.29-3.14,4.88-2.82,4.02-5.46,8.15-8.06,12.31-.97,1.56-2.16,2.97-3.16,4.51-.92,1.41-1.7,2.91-2.58,4.35-2.79,4.6-4.93,9.53-7.3,14.35-.59,1.19-1.09,2.41-1.89,3.49-.61.82-.94,1.82-1.22,2.8-.23.8-.67,1.47-1.1,2.17-1.2,1.96-2.36,3.94-3.74,5.79-2.73,3.65-5.02,7.58-7.39,11.46-1.43,2.35-2.65,4.85-4.52,6.93-.75.84-1.28,1.85-1.69,2.91-.57,1.44-1.55,2.65-2.36,3.95-.81,1.31-1.6,2.61-2.19,4.04-.13.33-.29.72-.55.9-1.96,1.3-2.89,3.42-4.2,5.23-1.29,1.78-2.5,3.62-3.78,5.4-.61.84-.93,1.82-1.41,2.72-1.59,2.99-3.67,5.66-5.41,8.55-1.07,1.77-1.76,3.68-2.7,5.5-.14.27-.2.58-.34.85-.29.52-.67.63-1.07.13-.67-.84-1.36-1.67-1.94-2.57-2.65-4.07-5.24-8.19-7.91-12.25-1.21-1.83-2.36-3.71-3.78-5.41-.69-.82-1.25-1.74-1.79-2.67-1.87-3.24-4.04-6.28-6.17-9.34-3.43-4.91-6.61-9.97-9.54-15.2-1.6-2.85-3.54-5.5-5.18-8.32-1.72-2.96-3.6-5.81-5.3-8.78-1.16-2.03-2.62-3.9-3.89-5.88-1.79-2.8-3.56-5.62-5.39-8.39-1.83-2.77-3.76-5.48-5.59-8.25-1.83-2.78-3.89-5.39-5.73-8.15-1.58-2.37-3.55-4.49-4.83-7.07-.4-.81-1.04-1.51-1.61-2.23-2.48-3.18-4.41-6.75-6.9-9.94-1.56-2.01-3-4.17-4.22-6.39-1.6-2.92-3.57-5.6-5.17-8.5-1.18-2.13-2.74-4.06-3.97-6.17-1.15-1.98-2.42-3.89-3.48-5.94-.98-1.9-2.19-3.69-3.42-5.44-1.65-2.34-3.11-4.8-4.71-7.17-1.28-1.89-2.43-3.87-3.97-5.61-.86-.97-1.29-2.32-2.03-3.41-2.23-3.3-4.52-6.57-6.78-9.85-1.38-2.01-2.71-4.07-4.14-6.05-1.91-2.64-3.5-5.48-5.29-8.19-2.28-3.45-4.61-6.88-7.01-10.24-3.3-4.61-6.15-9.51-9.69-13.96-1.38-1.73-2.62-3.65-3.63-5.67-.43-.87-.97-1.67-1.64-2.4-1.17-1.29-2-2.83-2.98-4.27-1.73-2.52-3.14-5.26-5.07-7.65-1.06-1.31-2.04-2.68-3.03-4.04-.93-1.27-1.8-2.58-2.73-3.84-.64-.86-1.25-1.77-2.02-2.51-2.5-2.4-4.2-5.38-6.16-8.18-1.99-2.85-3.73-5.86-5.79-8.66-1.84-2.5-3.48-5.15-5.23-7.71-1.72-2.53-3.49-5.03-5.2-7.56-2.18-3.21-4.75-6.16-6.63-9.57-1-1.81-2.31-3.36-3.41-5.07-.38-.6-.71-1.24-1.08-1.85-1.71-2.77-2.96-5.84-5.06-8.34-1.99-2.37-3.45-5.06-5.12-7.63-1.55-2.39-2.77-4.98-4.45-7.29-1.29-1.78-2.59-3.57-3.74-5.41-1.63-2.6-3.45-5.06-5.13-7.63-2.57-3.93-5.09-7.88-7.89-11.67-1.65-2.23-3.23-4.56-4.34-7.18-1.2-2.83-3.08-5.29-4.86-7.79-.85-1.2-1.71-2.38-2.45-3.67-1.35-2.36-2.26-4.91-3.57-7.28-.94-1.7-2.1-3.26-3.27-4.82-1.48-1.96-2.89-3.98-4.17-6.07-1.07-1.75-2.32-3.37-3.41-5.09-2.62-4.15-5.68-8-8.29-12.16-.95-1.51-2.05-2.92-3.08-4.38-.12-.17-.27-.31-.36-.49-.18-.35-.55-.69-.33-1.12Z"/>
  <path d="M226.48,318.23c.23-1.05.37-2.13.71-3.15,1.06-3.14,1.84-6.36,2.74-9.54,1.1-3.88,2.44-7.69,3.34-11.61.64-2.77.9-5.69.19-8.5-.49-1.9-1.85-3.37-3.43-4.51-1.27-.91-2.53-1.81-4.12-2.25-1.27-.35-2.39-1.25-3.61-1.83-2.89-1.37-5.76-2.75-8.59-4.24-4.22-2.23-8.09-5.09-12.47-7.04-3.24-1.45-6.4-1.24-9.64-.04-4.33,1.61-7.97,4.35-11.7,6.97-1.51,1.06-3.11,1.99-4.61,3.07-3.18,2.29-6.42,4.49-9.7,6.63-.31.2-.64.38-1.12.44.23-.3.43-.62.68-.89,1.2-1.26,2.36-2.55,3.63-3.73,3.35-3.11,6.2-6.68,9.38-9.95,2.61-2.69,4.96-5.75,6.28-9.33,1.13-3.08,1.52-6.25-.4-9.33-1.23-1.97-2.42-4-3.22-6.21-.84-2.32-2.37-4.28-3.45-6.48-1.47-3-2.2-6.24-3.01-9.44-.91-3.63-1.37-7.33-1.14-11.08.03-.45-.18-1.2.34-1.3.63-.12.69.66.88,1.12.89,2.2,1.77,4.41,2.61,6.62.61,1.6,1.54,3.03,2.47,4.44,2.05,3.07,3.98,6.21,6.18,9.18,2.45,3.3,4.92,6.6,7.88,9.44,1.25,1.19,2.4,2.46,3.58,3.7,3.91,4.1,8.57,7.13,13.44,9.97,3.11,1.81,6.19,3.7,9.21,5.69,2.48,1.63,5.08,3,8.06,3.64,1.73.37,3.25,1.54,4.96,2.14,2.69.95,5.38,1.93,8.06,2.91,1.02.37,2.06.72,3.04,1.19,3.65,1.77,7.64,2.14,11.53,2.93,2.39.49,4.82.82,7.22,1.21,2.06.33,4.12.88,6.25.83,1.38-.03,2.63.6,3.98.78.7.09,1.4.27,2.12.24,3.03-.12,5.98.33,8.95.93,3.63.74,7.28,1.28,11.05,1.2,4.32-.09,8.64.62,12.98.47,4.85-.17,9.68-.41,14.51-1.07,3.86-.53,7.55-1.66,11.34-2.39,6.45-1.23,12.68-3.19,18.97-4.98,4.75-1.35,9.42-2.85,13.84-5.12,2.81-1.44,5.66-2.81,8.54-4.13,4.09-1.87,7.77-4.45,11.53-6.87.6-.39,1.17-.87,1.83-1.11,3.25-1.19,5.44-3.86,8.17-5.78.18-.13.32-.36.51-.44,3.87-1.49,5.92-5,8.65-7.77,3.72-3.79,6.7-8.16,9.72-12.47,3.4-4.84,6.49-9.9,8.25-15.63.14-.47.32-.93.52-1.37.12-.26.21-.64.58-.6.41.04.35.45.36.72.1,2,.22,4.01-.05,5.99-.57,4.18-1.63,8.26-2.88,12.29-.97,3.11-2.88,5.7-4.41,8.5-1.57,2.88-3.5,5.54-5.06,8.43-.98,1.81-1.04,3.67-.66,5.6,1.22,6.16,4.64,11.04,8.76,15.64,2.86,3.2,6.14,6.01,8.69,9.49.29.39.57.78,1.06,1.45-1.29-.49-2.06-1.2-2.88-1.79-4.91-3.56-9.94-6.95-14.95-10.37-.74-.51-1.42-1.12-2.16-1.64-3.35-2.34-7.15-2.27-10.98-2.02-.04,0-.08,0-.11.02-2.91,1.67-6.26,2.34-9.13,4.14-2.29,1.44-4.8,2.53-7.12,3.93-3.3,1.99-6.94,3.25-10.35,4.98-2.69,1.37-5.45,2.78-7.64,4.97-.97.97-1.53,2.11-1.49,3.53.05,1.47.04,2.94,0,4.41-.08,2.47.85,4.72,1.47,7.03.8,2.97,1.65,5.92,2.5,8.88.8,2.78,1.63,5.55,2.45,8.33.05.18.12.35.02.56-.52.02-.67-.41-.85-.75-2.64-4.82-5.5-9.51-8.29-14.25-1.79-3.03-3.79-5.84-6.15-8.47-2.52-2.81-5.52-3.6-9.05-3.26-2.32.23-4.66.5-6.92.9-1.96.34-3.97.75-5.91,1.3-2.29.65-4.65.87-6.98,1.27-2.07.36-4.14.13-6.18.38-3.67.46-7.39.48-11,1.64-3.97,1.27-5.9,4.04-6.54,7.86-1.05,6.32-1.94,12.66-2.9,18.99-.27,1.79.01,3.63-.35,5.41-.16.78-.25,1.6-.98,2.46-.28-3.26-.54-6.28-.79-9.3-.4-4.96-1.17-9.87-2.16-14.75-.37-1.84-.88-3.66-1.22-5.51-.43-2.43-1.99-4.03-3.99-5.21-1.45-.86-2.99-1.59-4.71-1.83-1.99-.28-3.77-1.36-5.75-1.63-1.86-.25-3.68-.76-5.56-.82-1.81-.05-3.57-.42-5.35-.75-2.55-.47-5.11-.86-7.66-1.3-2.66-.46-5.31-.96-7.98-1.39-1.04-.17-2.09-.11-3.14.08-4.59.81-7.61,3.72-9.99,7.46-2.69,4.23-5.02,8.67-7.47,13.04-1.75,3.12-3.71,6.13-5.33,9.32-.13.26-.28.55-.78.47Z"/>
</svg>